<svg height="1em" width="1em" viewBox="0 0 24 24" xmlns="http://www.w3.org/2000/svg"><title>OpenRouter</title><path d="M16.03 8.976c-.386-.382-.798-.783-1.12-1.196l-.005-.006a7.25 7.25 0 0 0-.469-.54C13.24 6.01 11.98 5.5 10.63 5.5H3v2h7.63c.924 0 1.768.38 2.38 1l.005.005c.15.16.295.32.455.503l.028.031c.29.354.643.7 1.04 1.09l.006.006 1.553 1.547a.625.625 0 0 1 0 .883L14.53 14.12l-.005.005c-.396.389-.748.734-1.037 1.088l-.03.032c-.158.183-.303.345-.453.504l-.006.006c-.612.62-1.456 1-2.38 1H3v2h7.63c1.35 0 2.61-.51 3.836-1.734l.006-.006c.15-.158.294-.32.45-.5l.032-.035c.292-.355.644-.7 1.04-1.09l.006-.005 1.547-1.548a2.625 2.625 0 0 0 0-3.713z" fill="#6366F1"/><path d="M21 11h-4.5l2-2-1.415-1.414L13.672 11H13v2h.672l3.413 3.414L18.5 15l-2-2H21z" fill="#6366F1"/></svg>